<svg width="549" height="101" xmlns="http://www.w3.org/2000/svg" preserveAspectRatio="xMidYMid meet" data-background-color="#ffffff">
 <g>
  <title>Layer 1</title>
  <g transform="matrix(1, 0, 0, 1, 122.24, 160.103)" id="tight-bounds">
   <svg y="-149" x="-47.00003" id="svg_30" width="395.52" height="79.79497" viewBox="0 0 395.52 79.79496774929002">
    <svg id="svg_31" width="395.52" height="79.79497" viewBox="0 0 395.52 79.79496774929002">
     <svg id="svg_32" width="395.52" height="79.79497" viewBox="0 0 538.3425245686486 108.60898155852217">
      <g id="svg_19" transform="matrix(1,0,0,1,0,15.010358522198068)">
       <svg id="svg_33" width="395.52" height="78.58826" viewBox="0 0 395.52 78.58826451412604">
        <svg id="svg_20" width="395.52" height="78.58826" viewBox="0 0 395.52 78.58826451412604">
         <svg id="svg_34" width="395.52" height="78.58826" viewBox="0 0 395.52 78.58826451412604">
          <svg id="svg_35" data-palette-color="#6b7280" height="78.58826" viewBox="4.949999809265137 -32 161.04000854492188 32" width="395.52">
           <path id="svg_24" data-fill-palette-color="primary" class="wordmark-text-0" fill="#6b7280" d="m19.95,-2.25l0.25,0.3l-0.3,1.95l-14.95,0l0.15,-9.7l-0.15,-22.25l2.65,0l-0.15,22.1l0.1,7.6l12.4,0zm22.4,-0.1l0.2,0.3l-0.25,2.05l-16.85,0l0.15,-9.7l-0.15,-22.25l16.8,0l0.2,0.3l-0.3,2.05l-7.45,-0.1l-6.6,0.05l-0.1,12.05l6.25,0.05l5.35,-0.05l0.2,0.25l-0.25,2.05l-11.55,-0.05l-0.05,5.5l0.1,7.6l6.45,0.05l7.85,-0.15zm28.05,-29.6l-10.35,15.35l11.25,16.6l-3.21,0l-1.29,-2.25l-8.5,-12.3l-8.55,12.45l-1.2,2.1l-2.9,0l11.15,-16.35l-10.65,-15.6l3.25,0l1.2,2.15l7.85,11.45l7.75,-11.35l1.25,-2.25l2.95,0zm10.29,0l-0.15,22.1l0.1,9.85l-2.6,0l0.15,-9.7l-0.15,-22.25l2.65,0zm33.85,-0.05l-0.15,22.9l0,9.1l-2.65,0l-18.3,-27.6l-0.25,0l-0.05,17.35l0.05,10.25l-2.4,0l0.1,-9.5l-0.05,-22.45l2.7,0l18.25,27.6l0.25,0l0.05,-27.45l2.45,-0.2zm27,29.65l0.2,0.3l-0.25,2.05l-16.85,0l0.15,-9.7l-0.15,-22.25l16.8,0l0.2,0.3l-0.3,2.05l-7.45,-0.1l-6.6,0.05l-0.1,12.05l6.25,0.05l5.35,-0.05l0.2,0.25l-0.25,2.05l-11.55,-0.05l-0.05,5.5l0.1,7.6l6.45,0.05l7.85,-0.15zm24.2,-29.6l0.25,0.3l-0.25,2l-5.35,-0.15l-3.9,0l-0.15,19.95l0.1,9.85l-2.6,0l0.15,-9.7l-0.15,-20.1l-3.9,0l-5.45,0.15l-0.2,-0.3l0.25,-2l21.2,0z"/>
          </svg>
         </svg>
        </svg>
       </svg>
      </g>
      <g id="svg_27" transform="matrix(1,0,0,1,414.0728031334368,0)">
       <svg id="svg_36" width="124.26972" height="108.60898" viewBox="0 0 124.2697214352118 108.60898155852217">
        <svg id="svg_28" data-fill-palette-color="accent" class="icon-icon-0" width="124.26972" height="108.60898" xml:space="preserve" viewBox="5 10.670999526977539 90 78.65800476074219" y="0" x="0" version="1.1" xmlns:xlink="http://www.w3.org/1999/xlink" xmlns="http://www.w3.org/2000/svg">
         <g id="svg_37" data-fill-palette-color="accent" fill="#97978d">
          <path id="svg_38" data-fill-palette-color="accent" fill="#97978d" d="m30.893,81.166c0.133,4.524 3.854,8.163 8.41,8.163c4.633,0 8.403,-3.774 8.403,-8.413l0,-61.832c0,-4.639 -3.77,-8.413 -8.403,-8.413c-4.556,0 -8.277,3.639 -8.41,8.163c-7.348,0.657 -13.169,6.699 -13.479,14.14c-7.367,2.359 -12.414,9.197 -12.414,17.026s5.047,14.667 12.414,17.026c0.31,7.441 6.131,13.483 13.479,14.14zm-11.6,-16.723c-6.649,-1.653 -11.293,-7.592 -11.293,-14.443s4.644,-12.79 11.293,-14.443c0.703,-0.175 1.181,-0.826 1.135,-1.549l-0.014,-0.19c-0.006,-0.071 -0.014,-0.144 -0.014,-0.219c0,-6.52 5.304,-11.824 11.819,-11.824l0.116,0.011c0.46,0.053 0.925,-0.116 1.248,-0.453c0.323,-0.337 0.471,-0.805 0.4,-1.266c-0.049,-0.322 -0.095,-0.664 -0.095,-0.982c0,-2.985 2.429,-5.413 5.414,-5.413c2.979,0 5.403,2.428 5.403,5.413l0,61.831c0,2.985 -2.424,5.413 -5.403,5.413c-2.985,0 -5.414,-2.428 -5.414,-5.413c0,-0.319 0.046,-0.661 0.095,-0.982c0.071,-0.461 -0.077,-0.929 -0.4,-1.266c-0.284,-0.297 -0.676,-0.462 -1.083,-0.462c-0.055,0 -0.11,0.003 -0.166,0.009l-0.111,0.011c-6.52,0 -11.824,-5.304 -11.824,-11.824c0,-0.075 0.008,-0.147 0.014,-0.219l0.014,-0.19c0.047,-0.723 -0.431,-1.375 -1.134,-1.55z"/>
          <path id="svg_39" data-fill-palette-color="accent" fill="#97978d" d="m82.586,32.974c-0.31,-7.44 -6.131,-13.482 -13.479,-14.14c-0.133,-4.524 -3.854,-8.163 -8.41,-8.163c-4.633,0 -8.403,3.774 -8.403,8.413l0,61.831c0,4.639 3.77,8.413 8.403,8.413c4.556,0 8.277,-3.639 8.41,-8.163c7.348,-0.657 13.169,-6.699 13.479,-14.14c7.367,-2.358 12.414,-9.196 12.414,-17.025s-5.047,-14.667 -12.414,-17.026zm-1.879,31.469c-0.703,0.175 -1.181,0.826 -1.135,1.549l0.014,0.19c0.006,0.071 0.014,0.144 0.014,0.219c0,6.52 -5.304,11.824 -11.819,11.824l-0.116,-0.011c-0.46,-0.053 -0.925,0.115 -1.248,0.453c-0.323,0.337 -0.471,0.805 -0.4,1.266c0.049,0.322 0.095,0.664 0.095,0.982c0,2.985 -2.429,5.413 -5.414,5.413c-2.979,0 -5.403,-2.428 -5.403,-5.413l0,-61.831c0,-2.985 2.424,-5.413 5.403,-5.413c2.985,0 5.414,2.428 5.414,5.413c0,0.319 -0.046,0.661 -0.095,0.982c-0.071,0.461 0.077,0.929 0.4,1.266c0.323,0.337 0.787,0.505 1.248,0.453l0.111,-0.011c6.52,0 11.824,5.304 11.824,11.824c0,0.075 -0.008,0.147 -0.014,0.219l-0.014,0.19c-0.045,0.723 0.433,1.375 1.135,1.549c6.649,1.654 11.293,7.593 11.293,14.444s-4.644,12.79 -11.293,14.443z"/>
          <path id="svg_40" data-fill-palette-color="accent" fill="#97978d" d="m27.69,58.964c1.84,0 3.53,-0.639 4.872,-1.7l0,6.359c-2.134,0.649 -3.702,2.612 -3.702,4.955c0,2.869 2.333,5.202 5.202,5.202c2.868,0 5.202,-2.333 5.202,-5.202c0,-2.343 -1.568,-4.306 -3.702,-4.955l0,-12.152l0,-0.377l0,-8.67c2.136,-0.648 3.705,-2.612 3.705,-4.956c0,-2.868 -2.333,-5.202 -5.202,-5.202c-2.868,0 -5.202,2.333 -5.202,5.202c0,2.343 1.566,4.305 3.699,4.954l0,8.672c0,2.686 -2.186,4.871 -4.872,4.871c-2.269,0 -4.165,-1.566 -4.703,-3.67c2.048,-0.699 3.534,-2.621 3.534,-4.903c0,-2.868 -2.333,-5.202 -5.202,-5.202c-2.869,0 -5.202,2.333 -5.202,5.202c0,2.386 1.623,4.38 3.817,4.991c0.618,3.727 3.856,6.581 7.756,6.581zm8.574,9.614c0,1.214 -0.988,2.202 -2.202,2.202c-1.214,0 -2.202,-0.988 -2.202,-2.202c0,-1.214 0.988,-2.202 2.202,-2.202c1.214,0 2.202,0.988 2.202,2.202zm-4.401,-31.111c0,-1.214 0.988,-2.202 2.202,-2.202c1.214,0 2.202,0.988 2.202,2.202c0,1.214 -0.988,2.202 -2.202,2.202c-1.214,0 -2.202,-0.988 -2.202,-2.202zm-12.746,9.924c0,-1.214 0.988,-2.202 2.202,-2.202c1.214,0 2.202,0.988 2.202,2.202c0,1.214 -0.988,2.202 -2.202,2.202c-1.214,0 -2.202,-0.988 -2.202,-2.202z"/>
          <path id="svg_41" data-fill-palette-color="accent" fill="#97978d" d="m79.77,48.566c-0.624,-3.887 -3.992,-6.869 -8.052,-6.869c-1.958,0 -3.756,0.694 -5.164,1.847l0,-6.84c2.229,-0.654 3.872,-2.694 3.872,-5.133c0,-2.962 -2.41,-5.372 -5.372,-5.372s-5.373,2.41 -5.373,5.372c0,2.438 1.643,4.479 3.873,5.133l0,12.762l0,0.395l0,9.119c-2.231,0.653 -3.876,2.694 -3.876,5.134c0,2.962 2.41,5.372 5.373,5.372s5.372,-2.41 5.372,-5.372c0,-2.437 -1.641,-4.476 -3.869,-5.131l0,-9.121c0,-2.848 2.316,-5.165 5.164,-5.165c2.429,0 4.458,1.691 5.006,3.953c-2.148,0.703 -3.714,2.703 -3.714,5.083c0,2.962 2.41,5.372 5.372,5.372s5.372,-2.41 5.372,-5.372c0.001,-2.479 -1.696,-4.551 -3.984,-5.167zm-17.088,-16.994c0,-1.308 1.064,-2.372 2.373,-2.372s2.372,1.064 2.372,2.372s-1.064,2.372 -2.372,2.372s-2.373,-1.064 -2.373,-2.372zm4.741,32.543c0,1.308 -1.064,2.372 -2.372,2.372s-2.373,-1.064 -2.373,-2.372s1.064,-2.372 2.373,-2.372s2.372,1.064 2.372,2.372zm10.96,-8.009c-1.308,0 -2.372,-1.064 -2.372,-2.372s1.064,-2.372 2.372,-2.372s2.372,1.064 2.372,2.372s-1.064,2.372 -2.372,2.372z"/>
         </g>
        </svg>
       </svg>
      </g>
     </svg>
    </svg>

   </svg>
   <rect x="-47.00003" y="-149" id="svg_42" visibility="hidden" fill="none" height="79.79497" width="395.52"/>
  </g>
 </g>
</svg>